<?xml version="1.0" standalone="no"?>
<!DOCTYPE svg PUBLIC "-//W3C//DTD SVG 20010904//EN"
 "http://www.w3.org/TR/2001/REC-SVG-20010904/DTD/svg10.dtd">
<svg version="1.0" xmlns="http://www.w3.org/2000/svg"
 width="4167.000000pt" height="4167.000000pt" viewBox="0 0 4167.000000 4167.000000"
 preserveAspectRatio="xMidYMid meet">
<metadata>
Created by potrace 1.14, written by Peter Selinger 2001-2017
</metadata>
<g transform="translate(0.000000,4167.000000) scale(0.100000,-0.100000)"
fill="#000000" stroke="none">
<path d="M0 20835 l0 -20835 20835 0 20835 0 0 20835 0 20835 -20835 0 -20835
0 0 -20835z m21260 11705 c1280 -48 2476 -282 3656 -716 2707 -994 4983 -2993
6332 -5561 1211 -2305 1617 -4969 1151 -7548 -323 -1783 -1064 -3481 -2152
-4930 -340 -452 -643 -803 -1051 -1214 -935 -944 -1933 -1669 -3106 -2254
-2137 -1067 -4545 -1454 -6918 -1111 -2297 331 -4413 1323 -6158 2885 -205
183 -700 678 -883 883 -1088 1215 -1897 2605 -2406 4131 -560 1678 -732 3484
-499 5255 224 1705 830 3357 1764 4805 354 550 771 1089 1221 1580 169 184
578 593 754 752 1528 1385 3362 2334 5365 2777 947 209 1970 302 2930 266z"/>
</g>
</svg>
